<svg id="visual" viewBox="0 0 900 600" width="900" height="600" xmlns="http://www.w3.org/2000/svg" xmlns:xlink="http://www.w3.org/1999/xlink" version="1.1"><g stroke-width="1" stroke-linejoin="bevel" opacity="0.1"><path d="M411 321L405.7 311L369.7 380Z" fill="#164257" stroke="#164257"></path><path d="M405.7 311L334.4 374L369.7 380Z" fill="#163649" stroke="#163649"></path><path d="M405.7 311L319.4 272L334.4 374Z" fill="#111f2c" stroke="#111f2c"></path><path d="M405.7 311L323.4 268L319.4 272Z" fill="#163c50" stroke="#163c50"></path><path d="M369.7 380L440 381L411 321Z" fill="#132433" stroke="#132433"></path><path d="M267.1 363L304.4 405L334.4 374Z" fill="#0f1925" stroke="#0f1925"></path><path d="M334.4 374L361.4 450L369.7 380Z" fill="#142a3a" stroke="#142a3a"></path><path d="M369.7 380L400.7 460L440 381Z" fill="#142a3a" stroke="#142a3a"></path><path d="M323.4 268L288.1 276L319.4 272Z" fill="#111f2c" stroke="#111f2c"></path><path d="M319.4 272L265.1 316L334.4 374Z" fill="#163649" stroke="#163649"></path><path d="M265.1 316L267.1 363L334.4 374Z" fill="#132433" stroke="#132433"></path><path d="M288.1 276L265.1 316L319.4 272Z" fill="#111f2c" stroke="#111f2c"></path><path d="M304.4 405L361.4 450L334.4 374Z" fill="#142a3a" stroke="#142a3a"></path><path d="M503.3 414L492 344L440 381Z" fill="#142a3a" stroke="#142a3a"></path><path d="M440 381L492 344L411 321Z" fill="#000511" stroke="#000511"></path><path d="M411 321L478 232L405.7 311Z" fill="#132433" stroke="#132433"></path><path d="M405.7 311L375.7 210L323.4 268Z" fill="#111f2c" stroke="#111f2c"></path><path d="M380.7 210L375.7 210L405.7 311Z" fill="#132433" stroke="#132433"></path><path d="M283.4 146L214.9 236L288.1 276Z" fill="#070e18" stroke="#070e18"></path><path d="M478 232L380.7 210L405.7 311Z" fill="#070e18" stroke="#070e18"></path><path d="M361.4 450L400.7 460L369.7 380Z" fill="#163c50" stroke="#163c50"></path><path d="M391.7 503L405 464L400.7 460Z" fill="#163041" stroke="#163041"></path><path d="M400.7 460L478.3 438L440 381Z" fill="#164257" stroke="#164257"></path><path d="M405 464L478.3 438L400.7 460Z" fill="#142a3a" stroke="#142a3a"></path><path d="M267.1 363L248.1 422L304.4 405Z" fill="#132433" stroke="#132433"></path><path d="M304.4 405L240.1 504L361.4 450Z" fill="#164257" stroke="#164257"></path><path d="M361.4 450L391.7 503L400.7 460Z" fill="#142a3a" stroke="#142a3a"></path><path d="M204.9 366L248.1 422L267.1 363Z" fill="#070e18" stroke="#070e18"></path><path d="M492 344L478 232L411 321Z" fill="#070e18" stroke="#070e18"></path><path d="M478.3 438L503.3 414L440 381Z" fill="#163c50" stroke="#163c50"></path><path d="M492 344L549.3 318L478 232Z" fill="#0f1925" stroke="#0f1925"></path><path d="M202.9 275L204.9 366L265.1 316Z" fill="#163c50" stroke="#163c50"></path><path d="M265.1 316L204.9 366L267.1 363Z" fill="#070e18" stroke="#070e18"></path><path d="M366.7 558L391.7 503L344.4 557Z" fill="#0f1925" stroke="#0f1925"></path><path d="M405 464L391.7 503L478.3 438Z" fill="#000511" stroke="#000511"></path><path d="M204.9 366L196.9 376L248.1 422Z" fill="#163041" stroke="#163041"></path><path d="M214.9 236L202.9 275L288.1 276Z" fill="#164257" stroke="#164257"></path><path d="M288.1 276L202.9 275L265.1 316Z" fill="#0f1925" stroke="#0f1925"></path><path d="M204.9 366L153.6 382L196.9 376Z" fill="#0f1925" stroke="#0f1925"></path><path d="M549.6 320L549.3 318L492 344Z" fill="#163041" stroke="#163041"></path><path d="M544.3 394L549.6 320L492 344Z" fill="#000511" stroke="#000511"></path><path d="M559.6 414L544.3 394L503.3 414Z" fill="#070e18" stroke="#070e18"></path><path d="M503.3 414L544.3 394L492 344Z" fill="#142a3a" stroke="#142a3a"></path><path d="M559.6 414L503.3 414L536.6 512Z" fill="#164257" stroke="#164257"></path><path d="M484 159L423 160L478 232Z" fill="#163041" stroke="#163041"></path><path d="M478 232L423 160L380.7 210Z" fill="#0f1925" stroke="#0f1925"></path><path d="M380.7 210L423 160L375.7 210Z" fill="#163041" stroke="#163041"></path><path d="M283.4 146L288.1 276L323.4 268Z" fill="#111f2c" stroke="#111f2c"></path><path d="M283.4 146L323.4 268L375.7 210Z" fill="#163c50" stroke="#163c50"></path><path d="M196.9 376L220.1 463L248.1 422Z" fill="#163649" stroke="#163649"></path><path d="M248.1 422L240.1 504L304.4 405Z" fill="#070e18" stroke="#070e18"></path><path d="M536.6 512L503.3 414L478.3 438Z" fill="#164257" stroke="#164257"></path><path d="M544.3 394L607.6 342L549.6 320Z" fill="#163649" stroke="#163649"></path><path d="M297.1 136L283.4 146L375.7 210Z" fill="#164257" stroke="#164257"></path><path d="M591.6 221L534.6 207L549.3 318Z" fill="#132433" stroke="#132433"></path><path d="M549.3 318L534.6 207L478 232Z" fill="#163c50" stroke="#163c50"></path><path d="M530.3 199L484 159L478 232Z" fill="#132433" stroke="#132433"></path><path d="M335.4 116L297.1 136L375.7 210Z" fill="#000511" stroke="#000511"></path><path d="M534.6 207L530.3 199L478 232Z" fill="#0c141f" stroke="#0c141f"></path><path d="M220.1 463L240.1 504L248.1 422Z" fill="#0c141f" stroke="#0c141f"></path><path d="M335.4 116L375.7 210L423 160Z" fill="#163041" stroke="#163041"></path><path d="M107.6 479L214.9 487L220.1 463Z" fill="#142a3a" stroke="#142a3a"></path><path d="M220.1 463L214.9 487L240.1 504Z" fill="#0f1925" stroke="#0f1925"></path><path d="M202.9 275L153.6 382L204.9 366Z" fill="#163649" stroke="#163649"></path><path d="M196.9 376L153.6 382L220.1 463Z" fill="#070e18" stroke="#070e18"></path><path d="M100.6 398L153.6 382L84.6 329Z" fill="#0c141f" stroke="#0c141f"></path><path d="M344.4 557L391.7 503L361.4 450Z" fill="#163041" stroke="#163041"></path><path d="M391.7 503L536.6 512L478.3 438Z" fill="#142a3a" stroke="#142a3a"></path><path d="M240.1 504L344.4 557L361.4 450Z" fill="#0f1925" stroke="#0f1925"></path><path d="M351.7 105L335.4 116L423 160Z" fill="#163041" stroke="#163041"></path><path d="M349.7 97L351.7 105L489 91Z" fill="#0f1925" stroke="#0f1925"></path><path d="M335.4 116L254.1 67L297.1 136Z" fill="#163649" stroke="#163649"></path><path d="M530.3 199L504.3 143L484 159Z" fill="#163649" stroke="#163649"></path><path d="M484 159L489 91L423 160Z" fill="#163c50" stroke="#163c50"></path><path d="M553.3 163L504.3 143L530.3 199Z" fill="#163c50" stroke="#163c50"></path><path d="M605.9 390L607.6 342L544.3 394Z" fill="#0c141f" stroke="#0c141f"></path><path d="M549.6 320L607.9 315L549.3 318Z" fill="#0c141f" stroke="#0c141f"></path><path d="M534.6 207L553.3 163L530.3 199Z" fill="#163649" stroke="#163649"></path><path d="M607.6 342L607.9 315L549.6 320Z" fill="#163c50" stroke="#163c50"></path><path d="M489 91L351.7 105L423 160Z" fill="#0c141f" stroke="#0c141f"></path><path d="M351.7 105L349.7 97L335.4 116Z" fill="#111f2c" stroke="#111f2c"></path><path d="M223.1 81L207.9 155L283.4 146Z" fill="#163041" stroke="#163041"></path><path d="M608.9 471L605.9 390L559.6 414Z" fill="#132433" stroke="#132433"></path><path d="M559.6 414L605.9 390L544.3 394Z" fill="#142a3a" stroke="#142a3a"></path><path d="M451 582L536.6 512L391.7 503Z" fill="#163041" stroke="#163041"></path><path d="M283.4 146L207.9 155L214.9 236Z" fill="#000511" stroke="#000511"></path><path d="M76.3 263L84.6 329L202.9 275Z" fill="#142a3a" stroke="#142a3a"></path><path d="M254.1 67L283.4 146L297.1 136Z" fill="#070e18" stroke="#070e18"></path><path d="M607.9 315L591.6 221L549.3 318Z" fill="#142a3a" stroke="#142a3a"></path><path d="M591.6 221L553.3 163L534.6 207Z" fill="#132433" stroke="#132433"></path><path d="M366.7 558L451 582L391.7 503Z" fill="#000511" stroke="#000511"></path><path d="M398.7 600L451 582L366.7 558Z" fill="#142a3a" stroke="#142a3a"></path><path d="M214.9 487L224.9 552L240.1 504Z" fill="#111f2c" stroke="#111f2c"></path><path d="M240.1 504L224.9 552L344.4 557Z" fill="#000511" stroke="#000511"></path><path d="M325.4 600L398.7 600L366.7 558Z" fill="#142a3a" stroke="#142a3a"></path><path d="M172.6 554L224.9 552L214.9 487Z" fill="#070e18" stroke="#070e18"></path><path d="M325.4 600L366.7 558L344.4 557Z" fill="#163c50" stroke="#163c50"></path><path d="M224.9 552L325.4 600L344.4 557Z" fill="#163c50" stroke="#163c50"></path><path d="M559.3 54L489 91L504.3 143Z" fill="#070e18" stroke="#070e18"></path><path d="M504.3 143L489 91L484 159Z" fill="#000511" stroke="#000511"></path><path d="M536.6 512L608.9 471L559.6 414Z" fill="#0f1925" stroke="#0f1925"></path><path d="M696.1 279L607.9 315L607.6 342Z" fill="#163041" stroke="#163041"></path><path d="M696.1 279L642.9 267L607.9 315Z" fill="#163649" stroke="#163649"></path><path d="M547.6 553L608.9 471L536.6 512Z" fill="#163041" stroke="#163041"></path><path d="M84.6 329L153.6 382L202.9 275Z" fill="#164257" stroke="#164257"></path><path d="M153.6 382L107.6 479L220.1 463Z" fill="#163c50" stroke="#163c50"></path><path d="M484 600L538.3 559L451 582Z" fill="#163649" stroke="#163649"></path><path d="M451 582L538.3 559L536.6 512Z" fill="#132433" stroke="#132433"></path><path d="M538.3 559L547.6 553L536.6 512Z" fill="#163c50" stroke="#163c50"></path><path d="M607.9 315L642.9 267L591.6 221Z" fill="#0c141f" stroke="#0c141f"></path><path d="M591.6 221L636.9 180L553.3 163Z" fill="#111f2c" stroke="#111f2c"></path><path d="M650.9 254L642.9 267L696.1 279Z" fill="#070e18" stroke="#070e18"></path><path d="M100.6 398L97.3 417L153.6 382Z" fill="#070e18" stroke="#070e18"></path><path d="M95.6 211L202.9 275L214.9 236Z" fill="#132433" stroke="#132433"></path><path d="M100.6 398L85.3 393L97.3 417Z" fill="#164257" stroke="#164257"></path><path d="M489 91L350.4 50L349.7 97Z" fill="#164257" stroke="#164257"></path><path d="M349.7 97L254.1 67L335.4 116Z" fill="#000511" stroke="#000511"></path><path d="M398.7 600L484 600L451 582Z" fill="#000511" stroke="#000511"></path><path d="M538.3 559L552.3 600L547.6 553Z" fill="#142a3a" stroke="#142a3a"></path><path d="M84.6 329L85.3 393L100.6 398Z" fill="#0f1925" stroke="#0f1925"></path><path d="M693.1 401L607.6 342L605.9 390Z" fill="#163649" stroke="#163649"></path><path d="M642.9 267L650.9 254L591.6 221Z" fill="#163c50" stroke="#163c50"></path><path d="M553.3 163L597.6 126L504.3 143Z" fill="#000511" stroke="#000511"></path><path d="M224.9 552L243.1 600L325.4 600Z" fill="#132433" stroke="#132433"></path><path d="M175.9 600L243.1 600L224.9 552Z" fill="#000511" stroke="#000511"></path><path d="M350.4 50L254.1 67L349.7 97Z" fill="#0f1925" stroke="#0f1925"></path><path d="M121.6 151L95.6 211L214.9 236Z" fill="#142a3a" stroke="#142a3a"></path><path d="M107.6 479L172.6 554L214.9 487Z" fill="#163649" stroke="#163649"></path><path d="M254.1 67L223.1 81L283.4 146Z" fill="#132433" stroke="#132433"></path><path d="M97.3 417L107.6 479L153.6 382Z" fill="#132433" stroke="#132433"></path><path d="M95.3 509L107.6 479L0 465Z" fill="#000511" stroke="#000511"></path><path d="M121.6 151L214.9 236L207.9 155Z" fill="#163c50" stroke="#163c50"></path><path d="M95.6 211L76.3 263L202.9 275Z" fill="#164257" stroke="#164257"></path><path d="M84.6 329L0 347L85.3 393Z" fill="#111f2c" stroke="#111f2c"></path><path d="M650.9 254L636.9 180L591.6 221Z" fill="#0c141f" stroke="#0c141f"></path><path d="M636.9 180L597.6 126L553.3 163Z" fill="#070e18" stroke="#070e18"></path><path d="M149.9 102L121.6 151L207.9 155Z" fill="#163649" stroke="#163649"></path><path d="M141.6 98L106.6 154L121.6 151Z" fill="#070e18" stroke="#070e18"></path><path d="M121.6 151L106.6 154L95.6 211Z" fill="#132433" stroke="#132433"></path><path d="M95.6 211L45.3 230L76.3 263Z" fill="#132433" stroke="#132433"></path><path d="M484 600L552.3 600L538.3 559Z" fill="#0c141f" stroke="#0c141f"></path><path d="M687.9 500L675.1 473L608.9 471Z" fill="#164257" stroke="#164257"></path><path d="M223.1 81L149.9 102L207.9 155Z" fill="#132433" stroke="#132433"></path><path d="M141.6 98L149.9 102L152.9 18Z" fill="#132433" stroke="#132433"></path><path d="M0 465L107.6 479L97.3 417Z" fill="#142a3a" stroke="#142a3a"></path><path d="M107.6 479L95.3 509L172.6 554Z" fill="#142a3a" stroke="#142a3a"></path><path d="M172.6 554L175.9 600L224.9 552Z" fill="#163649" stroke="#163649"></path><path d="M102.6 600L175.9 600L172.6 554Z" fill="#0f1925" stroke="#0f1925"></path><path d="M675.1 473L605.9 390L608.9 471Z" fill="#163041" stroke="#163041"></path><path d="M675.1 473L693.1 401L605.9 390Z" fill="#163041" stroke="#163041"></path><path d="M650.9 254L742.1 219L636.9 180Z" fill="#164257" stroke="#164257"></path><path d="M152.9 18L149.9 102L223.1 81Z" fill="#164257" stroke="#164257"></path><path d="M149.9 102L141.6 98L121.6 151Z" fill="#000511" stroke="#000511"></path><path d="M693.1 401L696.1 279L607.6 342Z" fill="#000511" stroke="#000511"></path><path d="M595.6 600L608.9 471L547.6 553Z" fill="#111f2c" stroke="#111f2c"></path><path d="M464 0L356.4 0L350.4 50Z" fill="#163c50" stroke="#163c50"></path><path d="M350.4 50L354.7 0L254.1 67Z" fill="#163c50" stroke="#163c50"></path><path d="M254.1 67L222.9 0L223.1 81Z" fill="#163041" stroke="#163041"></path><path d="M464 0L350.4 50L489 91Z" fill="#0c141f" stroke="#0c141f"></path><path d="M356.4 0L354.7 0L350.4 50Z" fill="#0f1925" stroke="#0f1925"></path><path d="M650.9 33L559.3 54L597.6 126Z" fill="#142a3a" stroke="#142a3a"></path><path d="M597.6 126L559.3 54L504.3 143Z" fill="#0f1925" stroke="#0f1925"></path><path d="M59.3 149L45.3 230L95.6 211Z" fill="#164257" stroke="#164257"></path><path d="M0 309L0 347L84.6 329Z" fill="#142a3a" stroke="#142a3a"></path><path d="M85.3 393L0 434L97.3 417Z" fill="#142a3a" stroke="#142a3a"></path><path d="M59.3 149L95.6 211L106.6 154Z" fill="#0f1925" stroke="#0f1925"></path><path d="M552.3 600L595.6 600L547.6 553Z" fill="#163041" stroke="#163041"></path><path d="M742.1 219L660.9 145L636.9 180Z" fill="#163041" stroke="#163041"></path><path d="M636.9 180L660.9 145L597.6 126Z" fill="#163649" stroke="#163649"></path><path d="M549.6 21L464 0L489 91Z" fill="#164257" stroke="#164257"></path><path d="M656.9 600L687.9 500L608.9 471Z" fill="#0c141f" stroke="#0c141f"></path><path d="M761.4 494L736.1 383L693.1 401Z" fill="#163041" stroke="#163041"></path><path d="M141.6 98L59.3 149L106.6 154Z" fill="#0c141f" stroke="#0c141f"></path><path d="M552.3 0L549.6 21L640.9 0Z" fill="#163041" stroke="#163041"></path><path d="M559.3 54L549.6 21L489 91Z" fill="#163c50" stroke="#163c50"></path><path d="M354.7 0L222.9 0L254.1 67Z" fill="#000511" stroke="#000511"></path><path d="M141.6 98L108.3 33L59.3 149Z" fill="#164257" stroke="#164257"></path><path d="M693.1 401L753.4 335L696.1 279Z" fill="#142a3a" stroke="#142a3a"></path><path d="M696.1 279L742.1 219L650.9 254Z" fill="#070e18" stroke="#070e18"></path><path d="M761.4 494L693.1 401L675.1 473Z" fill="#163041" stroke="#163041"></path><path d="M222.9 0L216.1 0L223.1 81Z" fill="#132433" stroke="#132433"></path><path d="M0 309L76.3 263L45.3 230Z" fill="#164257" stroke="#164257"></path><path d="M0 309L84.6 329L76.3 263Z" fill="#163649" stroke="#163649"></path><path d="M0 200L0 309L45.3 230Z" fill="#164257" stroke="#164257"></path><path d="M56.3 566L102.6 600L95.3 509Z" fill="#164257" stroke="#164257"></path><path d="M95.3 509L102.6 600L172.6 554Z" fill="#0c141f" stroke="#0c141f"></path><path d="M552.3 0L539.6 0L549.6 21Z" fill="#111f2c" stroke="#111f2c"></path><path d="M549.6 21L539.6 0L464 0Z" fill="#164257" stroke="#164257"></path><path d="M753.4 335L744.4 279L696.1 279Z" fill="#0c141f" stroke="#0c141f"></path><path d="M640.9 0L549.6 21L559.3 54Z" fill="#164257" stroke="#164257"></path><path d="M0 347L0 434L85.3 393Z" fill="#132433" stroke="#132433"></path><path d="M736.1 383L753.4 335L693.1 401Z" fill="#164257" stroke="#164257"></path><path d="M216.1 0L152.9 18L223.1 81Z" fill="#0c141f" stroke="#0c141f"></path><path d="M0 465L56.3 566L95.3 509Z" fill="#163c50" stroke="#163c50"></path><path d="M595.6 600L656.9 600L608.9 471Z" fill="#000511" stroke="#000511"></path><path d="M687.9 500L761.4 494L675.1 473Z" fill="#0f1925" stroke="#0f1925"></path><path d="M744.4 279L742.1 219L696.1 279Z" fill="#070e18" stroke="#070e18"></path><path d="M660.9 145L697.1 85L597.6 126Z" fill="#164257" stroke="#164257"></path><path d="M750.1 209L742.1 219L816.7 250Z" fill="#163041" stroke="#163041"></path><path d="M0 434L0 465L97.3 417Z" fill="#132433" stroke="#132433"></path><path d="M0 185L0 200L45.3 230Z" fill="#0f1925" stroke="#0f1925"></path><path d="M0 185L45.3 230L59.3 149Z" fill="#132433" stroke="#132433"></path><path d="M0 123L21.3 147L59.3 149Z" fill="#163c50" stroke="#163c50"></path><path d="M21.3 147L0 185L59.3 149Z" fill="#163649" stroke="#163649"></path><path d="M152.9 18L108.3 33L141.6 98Z" fill="#111f2c" stroke="#111f2c"></path><path d="M816.7 250L742.1 219L744.4 279Z" fill="#163c50" stroke="#163c50"></path><path d="M742.1 219L750.1 209L660.9 145Z" fill="#0c141f" stroke="#0c141f"></path><path d="M216.1 0L136.6 0L152.9 18Z" fill="#0c141f" stroke="#0c141f"></path><path d="M152.9 18L136.6 0L108.3 33Z" fill="#132433" stroke="#132433"></path><path d="M740.1 105L697.1 85L660.9 145Z" fill="#142a3a" stroke="#142a3a"></path><path d="M697.1 85L650.9 33L597.6 126Z" fill="#163041" stroke="#163041"></path><path d="M656.9 600L719.1 560L687.9 500Z" fill="#132433" stroke="#132433"></path><path d="M736.1 383L791.4 398L753.4 335Z" fill="#0c141f" stroke="#0c141f"></path><path d="M719.1 560L761.4 494L687.9 500Z" fill="#0f1925" stroke="#0f1925"></path><path d="M753.4 335L816.7 250L744.4 279Z" fill="#142a3a" stroke="#142a3a"></path><path d="M799.4 444L791.4 398L736.1 383Z" fill="#132433" stroke="#132433"></path><path d="M0 78L59.3 149L108.3 33Z" fill="#164257" stroke="#164257"></path><path d="M0 78L0 123L59.3 149Z" fill="#163c50" stroke="#163c50"></path><path d="M21.3 147L0 123L0 185Z" fill="#142a3a" stroke="#142a3a"></path><path d="M0 582L33.3 600L56.3 566Z" fill="#000511" stroke="#000511"></path><path d="M56.3 566L33.3 600L102.6 600Z" fill="#163041" stroke="#163041"></path><path d="M699.1 0L640.9 0L650.9 33Z" fill="#163649" stroke="#163649"></path><path d="M650.9 33L640.9 0L559.3 54Z" fill="#070e18" stroke="#070e18"></path><path d="M750.1 209L740.1 105L660.9 145Z" fill="#163c50" stroke="#163c50"></path><path d="M697.1 85L699.1 0L650.9 33Z" fill="#142a3a" stroke="#142a3a"></path><path d="M807.4 175L740.1 105L750.1 209Z" fill="#070e18" stroke="#070e18"></path><path d="M852.7 496L789.4 476L834.7 544Z" fill="#163041" stroke="#163041"></path><path d="M761.4 494L799.4 444L736.1 383Z" fill="#070e18" stroke="#070e18"></path><path d="M789.4 476L799.4 444L761.4 494Z" fill="#000511" stroke="#000511"></path><path d="M0 465L0 582L56.3 566Z" fill="#163041" stroke="#163041"></path><path d="M719.1 560L760.4 600L761.4 494Z" fill="#142a3a" stroke="#142a3a"></path><path d="M656.9 600L731.1 600L719.1 560Z" fill="#070e18" stroke="#070e18"></path><path d="M60.3 0L0 78L108.3 33Z" fill="#0c141f" stroke="#0c141f"></path><path d="M0 582L0 600L33.3 600Z" fill="#070e18" stroke="#070e18"></path><path d="M872.7 326L816.7 250L753.4 335Z" fill="#111f2c" stroke="#111f2c"></path><path d="M872.7 326L753.4 335L791.4 398Z" fill="#163649" stroke="#163649"></path><path d="M136.6 0L60.3 0L108.3 33Z" fill="#132433" stroke="#132433"></path><path d="M829.7 215L807.4 175L750.1 209Z" fill="#163649" stroke="#163649"></path><path d="M757.4 43L699.1 0L697.1 85Z" fill="#132433" stroke="#132433"></path><path d="M757.4 43L697.1 85L740.1 105Z" fill="#070e18" stroke="#070e18"></path><path d="M864.7 458L869.7 373L799.4 444Z" fill="#163649" stroke="#163649"></path><path d="M731.1 600L760.4 600L719.1 560Z" fill="#164257" stroke="#164257"></path><path d="M816.7 250L829.7 215L750.1 209Z" fill="#132433" stroke="#132433"></path><path d="M900 274L829.7 215L816.7 250Z" fill="#163041" stroke="#163041"></path><path d="M790.7 90L740.1 105L807.4 175Z" fill="#142a3a" stroke="#142a3a"></path><path d="M790.7 90L757.4 43L740.1 105Z" fill="#0c141f" stroke="#0c141f"></path><path d="M806.4 90L790.7 90L807.4 175Z" fill="#164257" stroke="#164257"></path><path d="M60.3 0L0 0L0 78Z" fill="#163c50" stroke="#163c50"></path><path d="M852.7 496L799.4 444L789.4 476Z" fill="#070e18" stroke="#070e18"></path><path d="M799.4 444L869.7 373L791.4 398Z" fill="#111f2c" stroke="#111f2c"></path><path d="M871.7 130L807.4 175L900 176Z" fill="#132433" stroke="#132433"></path><path d="M871.7 130L806.4 90L807.4 175Z" fill="#163041" stroke="#163041"></path><path d="M790.7 90L806.4 90L757.4 43Z" fill="#163649" stroke="#163649"></path><path d="M869.7 373L872.7 326L791.4 398Z" fill="#111f2c" stroke="#111f2c"></path><path d="M834.7 544L789.4 476L761.4 494Z" fill="#111f2c" stroke="#111f2c"></path><path d="M760.4 600L834.7 544L761.4 494Z" fill="#132433" stroke="#132433"></path><path d="M852.7 496L864.7 458L799.4 444Z" fill="#0c141f" stroke="#0c141f"></path><path d="M869.7 373L900 325L872.7 326Z" fill="#163649" stroke="#163649"></path><path d="M900 463L864.7 458L852.7 496Z" fill="#163c50" stroke="#163c50"></path><path d="M900 458L900 387L864.7 458Z" fill="#111f2c" stroke="#111f2c"></path><path d="M760.4 600L825.7 600L834.7 544Z" fill="#111f2c" stroke="#111f2c"></path><path d="M806.4 90L778.4 0L757.4 43Z" fill="#142a3a" stroke="#142a3a"></path><path d="M757.4 43L778.4 0L699.1 0Z" fill="#142a3a" stroke="#142a3a"></path><path d="M900 387L900 325L869.7 373Z" fill="#164257" stroke="#164257"></path><path d="M872.7 326L900 274L816.7 250Z" fill="#163649" stroke="#163649"></path><path d="M806.4 90L869.7 0L778.4 0Z" fill="#000511" stroke="#000511"></path><path d="M864.7 458L900 387L869.7 373Z" fill="#132433" stroke="#132433"></path><path d="M900 458L864.7 458L900 463Z" fill="#142a3a" stroke="#142a3a"></path><path d="M900 325L900 274L872.7 326Z" fill="#142a3a" stroke="#142a3a"></path><path d="M900 176L807.4 175L829.7 215Z" fill="#163649" stroke="#163649"></path><path d="M900 463L852.7 496L900 556Z" fill="#163041" stroke="#163041"></path><path d="M900 556L852.7 496L834.7 544Z" fill="#0c141f" stroke="#0c141f"></path><path d="M900 274L900 176L829.7 215Z" fill="#070e18" stroke="#070e18"></path><path d="M900 176L900 161L871.7 130Z" fill="#163649" stroke="#163649"></path><path d="M871.7 130L900 88L806.4 90Z" fill="#0c141f" stroke="#0c141f"></path><path d="M825.7 600L900 556L834.7 544Z" fill="#163041" stroke="#163041"></path><path d="M900 161L900 88L871.7 130Z" fill="#163041" stroke="#163041"></path><path d="M825.7 600L900 600L900 556Z" fill="#000511" stroke="#000511"></path><path d="M900 88L869.7 0L806.4 90Z" fill="#163c50" stroke="#163c50"></path><path d="M900 88L900 0L869.7 0Z" fill="#163c50" stroke="#163c50"></path></g></svg>